<?xml version="1.0" encoding="iso-8859-1"?>
<!-- Generator: Adobe Illustrator 19.0.0, SVG Export Plug-In . SVG Version: 6.00 Build 0)  -->
<svg version="1.1" id="Layer_1" xmlns="http://www.w3.org/2000/svg" xmlns:xlink="http://www.w3.org/1999/xlink" x="0px" y="0px"
	 viewBox="0 0 275.185 275.185" style="enable-background:new 0 0 275.185 275.185;" xml:space="preserve">
<g>
	<path style="fill:#1D1D1B;" d="M212.09,226.444c0,0.482-0.161,0.844-0.402,1.085c0.201,0.241,0.281,0.522,0.08,0.844
		c-5.385,9.484-10.89,17.722-12.859,28.652c0.402,0.844,0.281,1.889-0.763,2.411c-21.459,11.011-44.807,16.798-68.959,15.592
		c-16.557-0.844-37.935-3.054-47.057-18.526c-0.362-0.08-0.764-0.201-0.924-0.603c-2.009-4.139-3.134-8.559-5.425-12.618
		c-1.929-3.456-4.3-6.711-6.671-9.886c-0.683-0.362-1.366-0.603-2.009-0.964c-1.125-0.603-0.683-1.929,0.241-2.291
		c0-0.04,0-0.04,0-0.08c-3.295-30.702-4.179-61.484-3.818-92.347c0.281-25.156-2.572-55.014,3.496-79.688
		c-0.08-0.321,0-0.683,0.241-0.924c0.08-0.362,0.161-0.723,0.281-1.085c0.04-0.201,0.161-0.322,0.322-0.402
		c1.165-2.893,3.697-5.425,5.224-8.118c1.808-3.215,2.773-6.872,4.541-10.087c-1.487-0.161-2.934-0.563-4.179-1.487
		c-2.17-1.648-3.295-5.264-1.889-7.515c0-0.08-0.04-0.161,0-0.241c1.045-3.134,6.711-5.505,10.006-4.501
		c9.323-2.25,22.986,0.322,30.059,0.161c11.332-0.281,22.665-0.643,33.957-0.965c0-0.121-0.08-0.201-0.04-0.362
		c0.844-5.224,11.372-11.212,15.431-14.226c5.184-3.818,11.493-9.122,18.445-8.158c4.3,0.603,7.675,3.376,8.519,7.716
		c1.085,5.666-2.17,10.408-5.747,14.467c2.733-0.04,5.505-0.08,8.278-0.04c0.321,0,0.563,0.121,0.804,0.241
		c2.853-1.366,6.671,0.844,7.716,3.657c1.045,2.853-0.241,5.907-2.813,7.233c0.04,0.08,0.08,0.161,0.08,0.241
		c-0.201,3.858,0.08,7.595,1.808,11.051c1.849,3.778,4.702,5.546,7.997,7.796c0.04,0,0.04,0.04,0.08,0.08
		c0.08,0.04,0.12,0.121,0.201,0.161c0.402,0,0.764,0.161,0.844,0.603c5.546,26,0.04,54.813,0.764,81.296
		C208.835,165.241,210.643,195.862,212.09,226.444z M208.754,226.002c0.04,0,0.04,0,0.08,0c-1.366-29.135-3.094-58.269-4.019-87.444
		c-0.884-27.728,1.447-55.336,0.683-83.024c-24.393,7.394-49.87,9.604-75.228,10.247c-20.173,0.522-42.798,2.934-61.323-6.43
		c1.085,57.104-3.858,113.524,1.527,170.709c0.04,0.362-0.04,0.643-0.201,0.884C115.363,250.153,163.947,240.268,208.754,226.002z
		 M194.529,32.066c1.567-1.045,2.692-3.335,1.808-5.144c-0.965-1.969-2.934-1.929-4.822-1.929c-0.121,0-0.161-0.04-0.281-0.08
		c-0.201,0.121-0.442,0.241-0.764,0.241c-18.365,0.844-36.81,0.924-55.175,1.165c-12.739,0.161-52.442-5.144-61.323,4.059
		c-0.563,2.853,3.335,4.34,6.389,4.501c37.976-1.728,76.112-1.125,114.127-2.813H194.529z M196.016,256.101
		c-0.201-9.162,5.666-19.771,12.297-26.523c-41.632,13.342-91.543,24.835-133.577,6.51c4.501,5.264,8.118,11.935,8.961,18.405
		C109.456,284.271,166.037,271.452,196.016,256.101z M201.481,53.444c-5.827-3.456-9.082-11.855-7.233-18.244
		c-35.243,2.291-71.571,4.059-106.974,1.648c-2.09,0.281-4.26,0.522-6.43,0.643c-0.12,0-0.241,0-0.362,0
		c0.04,0.08,0.08,0.121,0.08,0.201c-0.201,3.978-2.532,8.198-4.541,11.533c-1.648,2.773-3.818,6.43-6.832,7.957
		c20.334,7.515,43.32,5.666,64.699,4.983C156.875,61.441,179.178,58.669,201.481,53.444z M183.397,16.072
		c4.179-6.47,1.607-10.77-7.676-12.9c-3.456,0.362-7.032,3.255-9.845,5.184c-1.607,1.125-18.847,13.502-18.445,14.266
		c0.04,0.08,0.04,0.121,0.04,0.201c10.328-0.281,20.615-0.442,30.943-0.522c0.04-0.08,0.08-0.161,0.121-0.201
		C180.303,20.211,181.91,18.202,183.397,16.072z"/>
	<path style="fill:#EF67AC;" d="M208.835,226.002c-0.04,0-0.04,0-0.08,0c-44.807,14.266-93.392,24.152-138.48,4.943
		c0.161-0.241,0.241-0.522,0.201-0.884c-5.385-57.184-0.442-113.605-1.527-170.709c18.526,9.363,41.15,6.952,61.323,6.43
		c25.357-0.643,50.835-2.853,75.228-10.247c0.764,27.688-1.567,55.296-0.683,83.024
		C205.741,167.733,207.469,196.867,208.835,226.002z M204.254,212.459c0.08,0.924,1.567,0.965,1.487,0
		c-0.201-2.09-0.402-4.099-0.723-6.189c-0.08-0.643-1.165-0.482-1.125,0.161C203.932,208.441,204.053,210.45,204.254,212.459z
		 M200.115,210.691c0.241,0.964,1.648,0.563,1.487-0.402c-0.362-1.969-0.362-3.898-0.322-5.867c0.04-0.804-1.246-1.005-1.406-0.201
		C199.431,206.431,199.592,208.521,200.115,210.691z M190.631,117.742c0.241,0.884,1.567,0.522,1.407-0.362
		c-0.402-1.768-0.482-3.576-0.362-5.385c0.04-0.723-1.165-0.924-1.286-0.161C190.028,113.884,190.108,115.732,190.631,117.742z
		 M163.104,137.633c-0.04-2.371-0.201-4.702-0.402-7.033c-0.121-1.165-1.929-1.206-1.849,0c0.121,2.331,0.322,4.662,0.603,7.033
		C161.577,138.638,163.104,138.678,163.104,137.633z M158.563,132.088c0.201-2.17,0.121-4.34,0.08-6.51
		c-0.04-1.045-1.607-1.045-1.648,0c-0.04,2.17-0.121,4.34,0.08,6.51C157.156,133.052,158.482,133.052,158.563,132.088z
		 M131.357,208.441c0.08,0.482,0.804,0.482,0.764,0c-0.121-1.889-0.362-3.737-0.603-5.586c-0.04-0.322-0.563-0.241-0.563,0.04
		C131.035,204.744,131.156,206.592,131.357,208.441z M126.173,75.948c0.804-0.04,0.844-1.206,0-1.246
		c-2.009-0.12-4.019-0.08-6.028-0.04c-0.844,0.04-0.844,1.286,0,1.326C122.154,76.029,124.164,76.069,126.173,75.948z
		 M125.409,73.778c0.884-0.161,0.643-1.567-0.241-1.607c-2.491-0.04-5.023,0-7.515-0.241c-0.884-0.08-1.085,1.407-0.201,1.567
		C120.105,73.939,122.717,74.18,125.409,73.778z M78.473,205.547c0.12,0.563,1.005,0.322,0.884-0.241
		c-0.161-0.844-0.362-1.648-0.563-2.492c-0.121-0.482-0.844-0.281-0.764,0.201C78.151,203.859,78.312,204.703,78.473,205.547z
		 M76.383,209.084c0.121,0.643,1.125,0.362,1.005-0.281c-0.322-1.849-0.683-3.657-1.085-5.505c-0.121-0.522-0.884-0.281-0.804,0.241
		C75.74,205.387,76.061,207.235,76.383,209.084z M74.534,87.401c0.241-2.692,0.362-5.385,0.522-8.037c0-0.804-1.165-0.804-1.246,0
		c-0.201,2.652-0.362,5.345-0.482,8.037C73.329,88.165,74.454,88.125,74.534,87.401z M72.887,76.31c0.04-0.643-0.924-0.603-1.005,0
		c-0.241,2.21-0.442,4.34-0.482,6.55c0,0.482,0.804,0.603,0.884,0.121C72.605,80.771,72.766,78.561,72.887,76.31z"/>
	<path style="fill:#1D1D1B;" d="M205.741,212.459c0.08,0.965-1.406,0.924-1.487,0c-0.201-2.009-0.321-4.018-0.362-6.028
		c-0.04-0.643,1.045-0.804,1.125-0.161C205.339,208.36,205.54,210.37,205.741,212.459z"/>
	<path style="fill:#1D1D1B;" d="M201.601,210.289c0.161,0.965-1.246,1.366-1.487,0.402c-0.522-2.17-0.683-4.26-0.241-6.47
		c0.161-0.804,1.447-0.603,1.406,0.201C201.24,206.391,201.24,208.32,201.601,210.289z"/>
	<path style="fill:#FACCE3;" d="M196.337,26.922c0.884,1.808-0.241,4.099-1.808,5.144h-0.04
		c-38.016,1.688-76.152,1.085-114.127,2.813c-3.054-0.161-6.952-1.648-6.389-4.501c8.881-9.202,48.584-3.898,61.323-4.059
		c18.365-0.241,36.81-0.321,55.175-1.165c0.321,0,0.563-0.12,0.764-0.241c0.12,0.04,0.161,0.08,0.281,0.08
		C193.404,24.993,195.373,24.953,196.337,26.922z M106.08,28.047c0.563,0,0.563-0.844,0-0.884c-2.17-0.161-4.34-0.362-6.47-0.804
		c-0.522-0.08-0.723,0.683-0.201,0.804C101.619,27.726,103.79,28.047,106.08,28.047z"/>
	<path style="fill:#FACCE3;" d="M208.312,229.578c-6.631,6.751-12.498,17.36-12.297,26.523
		c-29.979,15.351-86.56,28.17-112.319-1.607c-0.844-6.47-4.461-13.141-8.961-18.405C116.769,254.413,166.68,242.92,208.312,229.578z
		 M185.407,256.945c0.442-0.563-0.442-1.165-0.884-0.723c-1.366,1.286-2.813,2.451-4.421,3.416c-0.804,0.522-0.08,1.808,0.764,1.286
		C182.674,259.878,184.161,258.592,185.407,256.945z M184.965,254.172c0.603-0.563-0.201-1.728-0.924-1.206
		c-1.889,1.447-3.978,2.492-6.309,3.054c-1.005,0.201-0.563,1.607,0.402,1.447C180.785,257.105,183.036,256.02,184.965,254.172z
		 M128.303,255.578c0.563-0.161,0.322-1.045-0.241-0.884c-2.451,0.603-4.863,0.643-7.314,0.04c-0.563-0.121-0.804,0.723-0.241,0.884
		C123.119,256.342,125.691,256.382,128.303,255.578z M124.646,252.042c0.522-0.04,0.563-0.844,0-0.844
		c-2.21,0.08-4.34-0.241-6.389-1.045c-0.603-0.241-0.884,0.764-0.281,1.005C120.185,252.042,122.315,252.364,124.646,252.042z
		 M90.408,254.694c0.08-2.25-0.442-4.501-0.763-6.711c-0.121-0.563-1.005-0.442-1.005,0.12c0.12,2.25,0.08,4.541,0.563,6.751
		C89.323,255.538,90.408,255.377,90.408,254.694z M87.956,254.654c0.08-2.934-1.005-5.385-2.893-7.595
		c-0.482-0.522-1.246,0.241-0.804,0.804c1.607,1.969,2.371,4.3,2.652,6.791C86.992,255.297,87.916,255.337,87.956,254.654z"/>
	<path style="fill:#FACCE3;" d="M194.247,35.2c-1.848,6.389,1.407,14.788,7.233,18.244c-22.303,5.224-44.606,7.997-67.592,8.72
		c-21.379,0.683-44.365,2.532-64.699-4.983c3.014-1.527,5.184-5.184,6.832-7.957c2.009-3.335,4.34-7.555,4.541-11.533
		c0-0.08-0.04-0.12-0.08-0.201c0.12,0,0.241,0,0.362,0c2.17-0.121,4.34-0.362,6.43-0.643
		C122.677,39.259,159.005,37.491,194.247,35.2z M191.394,46.613c0.442,0.201,0.884-0.563,0.482-0.884
		c-1.246-1.005-1.969-2.291-1.366-3.938c0.281-0.764-0.964-1.085-1.205-0.322C188.581,43.478,189.345,45.769,191.394,46.613z
		 M186.451,48.703c0.603,0.764,1.567-0.201,1.246-0.924c-0.522-1.165-0.764-2.371-0.603-3.657c0.08-0.884-1.286-1.005-1.527-0.201
		C185.005,45.729,185.286,47.256,186.451,48.703z M108.491,60.196c0.522,0.08,0.763-0.764,0.201-0.884
		c-1.648-0.321-3.335-0.643-5.023-0.964c-0.482-0.08-0.723,0.683-0.201,0.804C105.116,59.513,106.803,59.834,108.491,60.196z
		 M104.232,43.84c0.603-0.121,0.442-1.125-0.161-1.085c-1.728,0.161-3.456,0.442-5.184,0.764c-0.482,0.08-0.362,0.924,0.121,0.884
		C100.776,44.282,102.504,44.121,104.232,43.84z M101.579,41.55c0.522,0.04,0.643-0.844,0.121-0.965
		c-2.009-0.482-4.099-0.723-6.149-1.005c-0.522-0.04-0.603,0.804-0.121,0.924C97.48,40.947,99.49,41.349,101.579,41.55z"/>
	<path style="fill:#1D1D1B;" d="M192.037,117.38c0.161,0.884-1.165,1.246-1.407,0.362c-0.522-2.009-0.603-3.858-0.241-5.907
		c0.12-0.764,1.326-0.563,1.286,0.161C191.555,113.803,191.635,115.612,192.037,117.38z"/>
	<path style="fill:#1D1D1B;" d="M191.877,45.729c0.402,0.321-0.04,1.085-0.482,0.884c-2.049-0.844-2.813-3.135-2.09-5.144
		c0.241-0.764,1.487-0.442,1.205,0.322C189.907,43.438,190.631,44.724,191.877,45.729z"/>
	<path style="fill:#1D1D1B;" d="M187.697,47.778c0.322,0.723-0.643,1.688-1.246,0.924c-1.165-1.447-1.447-2.974-0.884-4.782
		c0.241-0.804,1.607-0.683,1.527,0.201C186.934,45.407,187.175,46.613,187.697,47.778z"/>
	<path style="fill:#1D1D1B;" d="M184.523,256.221c0.442-0.442,1.326,0.161,0.884,0.723c-1.246,1.648-2.733,2.934-4.541,3.978
		c-0.844,0.522-1.567-0.764-0.764-1.286C181.71,258.673,183.156,257.507,184.523,256.221z"/>
	<path style="fill:#1D1D1B;" d="M184.04,252.966c0.723-0.522,1.527,0.643,0.924,1.206c-1.929,1.849-4.179,2.934-6.832,3.295
		c-0.964,0.161-1.406-1.246-0.402-1.447C180.062,255.458,182.152,254.413,184.04,252.966z"/>
	<path style="fill:#FACCE3;" d="M175.722,3.172c9.283,2.13,11.855,6.43,7.676,12.9c-1.487,2.13-3.094,4.139-4.863,6.028
		c-0.04,0.04-0.08,0.121-0.121,0.201c-10.328,0.08-20.615,0.241-30.943,0.522c0-0.08,0-0.121-0.04-0.201
		c-0.402-0.764,16.838-13.141,18.445-14.266C168.689,6.427,172.266,3.534,175.722,3.172z M179.62,17.157
		c3.094-2.974,1.768-7.876-1.286-10.288c-1.768-1.366-5.907-2.291-7.153-0.04c-2.049,1.808-2.652,4.822-1.366,7.475
		C171.502,17.639,176.526,20.131,179.62,17.157z M164.189,16.233c0.402-0.522-0.482-1.005-0.844-0.482
		c-1.326,1.728-2.893,3.255-4.621,4.581c-0.522,0.402-0.04,1.286,0.522,0.884C161.175,19.809,162.822,18.202,164.189,16.233z
		 M160.853,15.59c0.643-0.563-0.201-1.688-0.884-1.165c-1.808,1.286-3.536,2.652-5.224,4.059c-0.723,0.603,0.241,1.848,0.964,1.286
		C157.478,18.403,159.206,17.036,160.853,15.59z"/>
	<path style="fill:#1D1D1B;" d="M178.334,6.869c3.054,2.411,4.38,7.314,1.286,10.288c-3.094,2.974-8.118,0.482-9.805-2.853
		c-1.286-2.652-0.683-5.666,1.366-7.475C172.427,4.579,176.566,5.503,178.334,6.869z M177.812,14.906
		c1.889-1.849,0.402-5.023-1.527-6.229c-1.487-1.005-2.492-0.563-3.858,0.241c-0.161,0.121-0.362,0.161-0.563,0.161
		c-0.482,1.246-0.482,2.652,0.201,3.898C173.07,14.866,176.003,16.795,177.812,14.906z"/>
	<path style="fill:#1D1D1B;" d="M163.345,15.75c0.362-0.523,1.246-0.04,0.844,0.482c-1.366,1.969-3.014,3.576-4.943,4.983
		c-0.563,0.402-1.045-0.482-0.522-0.884C160.451,19.005,162.019,17.478,163.345,15.75z"/>
	<path style="fill:#1D1D1B;" d="M162.702,130.601c0.201,2.331,0.362,4.662,0.402,7.033c0,1.045-1.527,1.005-1.648,0
		c-0.281-2.371-0.482-4.702-0.603-7.033C160.773,129.395,162.581,129.436,162.702,130.601z"/>
	<path style="fill:#1D1D1B;" d="M159.969,14.424c0.683-0.522,1.527,0.603,0.884,1.165c-1.648,1.447-3.376,2.813-5.144,4.179
		c-0.723,0.563-1.688-0.683-0.964-1.286C156.433,17.076,158.161,15.71,159.969,14.424z"/>
	<path style="fill:#1D1D1B;" d="M158.643,125.578c0.04,2.17,0.121,4.34-0.08,6.51c-0.08,0.964-1.407,0.964-1.487,0
		c-0.201-2.17-0.121-4.34-0.08-6.51C157.036,124.533,158.603,124.533,158.643,125.578z"/>
	<path style="fill:#1D1D1B;" d="M132.12,208.441c0.04,0.482-0.683,0.482-0.764,0c-0.201-1.849-0.322-3.697-0.402-5.546
		c0-0.281,0.522-0.362,0.563-0.04C131.759,204.703,132,206.552,132.12,208.441z"/>
	<path style="fill:#1D1D1B;" d="M128.062,254.694c0.563-0.161,0.804,0.723,0.241,0.884c-2.612,0.804-5.184,0.764-7.796,0.04
		c-0.563-0.161-0.321-1.005,0.241-0.884C123.199,255.337,125.61,255.297,128.062,254.694z"/>
	<path style="fill:#1D1D1B;" d="M126.173,74.703c0.844,0.04,0.804,1.206,0,1.246c-2.009,0.121-4.019,0.08-6.028,0.04
		c-0.844-0.04-0.844-1.286,0-1.326C122.154,74.622,124.164,74.582,126.173,74.703z"/>
	<path style="fill:#1D1D1B;" d="M125.168,72.171c0.884,0.04,1.125,1.447,0.241,1.607c-2.692,0.402-5.304,0.161-7.957-0.281
		c-0.884-0.161-0.683-1.648,0.201-1.567C120.145,72.171,122.677,72.131,125.168,72.171z"/>
	<path style="fill:#1D1D1B;" d="M124.646,251.198c0.563,0,0.522,0.804,0,0.844c-2.331,0.322-4.461,0-6.671-0.884
		c-0.603-0.241-0.321-1.246,0.281-1.005C120.306,250.957,122.436,251.279,124.646,251.198z"/>
	<path style="fill:#1D1D1B;" d="M108.692,59.312c0.563,0.121,0.322,0.965-0.201,0.884c-1.688-0.362-3.376-0.683-5.023-1.045
		c-0.522-0.121-0.281-0.884,0.201-0.804C105.357,58.669,107.045,58.99,108.692,59.312z"/>
	<path style="fill:#1D1D1B;" d="M106.08,27.163c0.563,0.04,0.563,0.884,0,0.884c-2.29,0-4.461-0.321-6.671-0.884
		c-0.522-0.121-0.322-0.884,0.201-0.804C101.74,26.801,103.91,27.002,106.08,27.163z"/>
	<path style="fill:#1D1D1B;" d="M104.071,42.755c0.603-0.04,0.764,0.965,0.161,1.085c-1.728,0.281-3.456,0.442-5.224,0.563
		c-0.482,0.04-0.603-0.804-0.121-0.884C100.615,43.197,102.343,42.916,104.071,42.755z"/>
	<path style="fill:#1D1D1B;" d="M101.7,40.585c0.522,0.121,0.402,1.005-0.121,0.965c-2.09-0.201-4.099-0.603-6.148-1.045
		c-0.482-0.12-0.402-0.964,0.121-0.924C97.601,39.862,99.691,40.103,101.7,40.585z"/>
	<path style="fill:#1D1D1B;" d="M89.644,247.983c0.321,2.21,0.844,4.461,0.763,6.711c0,0.683-1.085,0.844-1.205,0.161
		c-0.482-2.21-0.442-4.501-0.563-6.751C88.64,247.541,89.524,247.421,89.644,247.983z"/>
	<path style="fill:#1D1D1B;" d="M85.063,247.059c1.889,2.21,2.974,4.661,2.893,7.595c-0.04,0.683-0.965,0.643-1.045,0
		c-0.281-2.492-1.045-4.822-2.652-6.791C83.817,247.3,84.581,246.537,85.063,247.059z"/>
	<path style="fill:#1D1D1B;" d="M79.357,205.306c0.121,0.563-0.764,0.804-0.884,0.241c-0.161-0.844-0.322-1.688-0.442-2.532
		c-0.08-0.482,0.643-0.683,0.764-0.201C78.995,203.659,79.196,204.462,79.357,205.306z"/>
	<path style="fill:#1D1D1B;" d="M77.388,208.802c0.12,0.643-0.884,0.924-1.005,0.281c-0.322-1.848-0.643-3.697-0.884-5.546
		c-0.08-0.522,0.683-0.763,0.804-0.241C76.704,205.145,77.066,206.954,77.388,208.802z"/>
	<path style="fill:#1D1D1B;" d="M75.057,79.364c-0.161,2.652-0.281,5.345-0.522,8.037c-0.08,0.723-1.206,0.764-1.206,0
		c0.121-2.692,0.281-5.385,0.482-8.037C73.891,78.561,75.057,78.561,75.057,79.364z"/>
	<path style="fill:#1D1D1B;" d="M71.882,76.31c0.08-0.603,1.045-0.643,1.005,0c-0.121,2.25-0.281,4.461-0.603,6.671
		c-0.08,0.482-0.884,0.362-0.884-0.121C71.44,80.65,71.641,78.52,71.882,76.31z"/>
</g>
<g>
</g>
<g>
</g>
<g>
</g>
<g>
</g>
<g>
</g>
<g>
</g>
<g>
</g>
<g>
</g>
<g>
</g>
<g>
</g>
<g>
</g>
<g>
</g>
<g>
</g>
<g>
</g>
<g>
</g>
</svg>
